<svg preserveAspectRatio="none" width="100%" height="100%" overflow="visible" style="display: block;" viewBox="0 0 14.13 17.33" fill="none" xmlns="http://www.w3.org/2000/svg">
<path id="Vector" d="M10.265 2.265H11.865C12.2893 2.265 12.6963 2.43357 12.9964 2.73363C13.2964 3.03369 13.465 3.44065 13.465 3.865V15.065C13.465 15.4893 13.2964 15.8963 12.9964 16.1964C12.6963 16.4964 12.2893 16.665 11.865 16.665H2.265C1.84065 16.665 1.43369 16.4964 1.13363 16.1964C0.833571 15.8963 0.665 15.4893 0.665 15.065V3.865C0.665 3.44065 0.833571 3.03369 1.13363 2.73363C1.43369 2.43357 1.84065 2.265 2.265 2.265H3.865M4.665 10.265H9.465M7.065 12.665V7.865M4.665 0.665H9.465C9.90683 0.665 10.265 1.02317 10.265 1.465V3.065C10.265 3.50683 9.90683 3.865 9.465 3.865H4.665C4.22317 3.865 3.865 3.50683 3.865 3.065V1.465C3.865 1.02317 4.22317 0.665 4.665 0.665Z" stroke="var(--stroke-0, #1C1F1B)" stroke-width="1.33" stroke-linecap="round" stroke-linejoin="round"/>
</svg>
