<svg preserveAspectRatio="none" width="100%" height="100%" overflow="visible" style="display: block;" viewBox="0 0 19.3193 20" fill="none" xmlns="http://www.w3.org/2000/svg">
<g id="G">
<path id="Blue" d="M19.3192 10.2225C19.3192 9.54196 19.2645 8.86143 19.155 8.19478H9.8598V12.0419H15.185C14.966 13.278 14.2541 14.389 13.2137 15.0835V17.5834H16.3897C18.2514 15.8473 19.3192 13.278 19.3192 10.2225Z" fill="var(--fill-0, #4285F4)"/>
<path id="Green" d="M9.86023 20C12.516 20 14.7611 19.1111 16.3901 17.5834L13.2142 15.0835C12.3243 15.6946 11.1881 16.0418 9.86023 16.0418C7.28661 16.0418 5.10998 14.278 4.32968 11.9169H1.05789V14.5002C2.72801 17.8751 6.13669 20 9.86023 20Z" fill="var(--fill-0, #34A853)"/>
<path id="Yellow" d="M4.33001 11.917C3.91926 10.6809 3.91926 9.3337 4.33001 8.08374V5.51437H1.05771C-0.352535 8.33373 -0.352535 11.667 1.05771 14.4863L4.33001 11.917Z" fill="var(--fill-0, #FBBC04)"/>
<path id="Red" d="M9.86023 3.95882C11.2702 3.93104 12.6255 4.47269 13.6385 5.45877L16.4586 2.59775C14.6652 0.903355 12.3106 -0.0271725 9.86023 0.00060444C6.13669 0.00060444 2.72801 2.13943 1.05789 5.51433L4.32968 8.09758C5.10998 5.72265 7.28661 3.95882 9.86023 3.95882Z" fill="var(--fill-0, #EA4335)"/>
</g>
</svg>
