<svg preserveAspectRatio="none" width="100%" height="100%" overflow="visible" style="display: block;" viewBox="0 0 23.1831 24" fill="none" xmlns="http://www.w3.org/2000/svg">
<g id="G">
<path id="Blue" d="M23.1831 12.267C23.1831 11.4504 23.1174 10.6337 22.9859 9.83377H11.8318V14.4503H18.222C17.9592 15.9336 17.1049 17.2669 15.8565 18.1002V21.1001H19.6676C21.9017 19.0168 23.1831 15.9336 23.1831 12.267Z" fill="var(--fill-0, #4285F4)"/>
<path id="Green" d="M11.8323 24C15.0192 24 17.7133 22.9333 19.6681 21.1001L15.857 18.1001C14.7892 18.8335 13.4257 19.2501 11.8323 19.2501C8.74392 19.2501 6.13197 17.1335 5.1956 14.3003H1.26946V17.4002C3.2736 21.45 7.36402 24 11.8323 24Z" fill="var(--fill-0, #34A853)"/>
<path id="Yellow" d="M5.19603 14.3004C4.70313 12.8171 4.70313 11.2004 5.19603 9.70049V6.61725H1.26926C-0.42303 10.0005 -0.42303 14.0004 1.26926 17.3836L5.19603 14.3004Z" fill="var(--fill-0, #FBBC04)"/>
<path id="Red" d="M11.8323 4.75058C13.5243 4.71725 15.1506 5.36723 16.3662 6.55053L19.7503 3.1173C17.5983 1.08403 14.7728 -0.032607 11.8323 0.000725328C7.36402 0.000725328 3.2736 2.56731 1.26946 6.61719L5.1956 9.7171C6.13197 6.86718 8.74392 4.75058 11.8323 4.75058Z" fill="var(--fill-0, #EA4335)"/>
</g>
</svg>
