<svg preserveAspectRatio="none" width="100%" height="100%" overflow="visible" style="display: block;" viewBox="0 0 16.4875 17.33" fill="none" xmlns="http://www.w3.org/2000/svg">
<path id="Vector" d="M10.77 16.665V9.92833C10.77 9.70499 10.6813 9.49081 10.5234 9.33288C10.3654 9.17496 10.1513 9.08624 9.92792 9.08624H6.55959C6.33625 9.08624 6.12207 9.17496 5.96414 9.33288C5.80622 9.49081 5.7175 9.70499 5.7175 9.92833V16.665M0.665 7.40208C0.664941 7.15709 0.718332 6.91503 0.821449 6.6928C0.924565 6.47057 1.07492 6.27351 1.26204 6.11537L7.15663 1.06287C7.46061 0.805955 7.84575 0.665 8.24376 0.665C8.64176 0.665 9.02691 0.805955 9.33089 1.06287L15.2255 6.11537C15.4126 6.27351 15.5629 6.47057 15.6661 6.6928C15.7692 6.91503 15.8226 7.15709 15.8225 7.40208V14.9808C15.8225 15.4275 15.6451 15.8559 15.3292 16.1717C15.0134 16.4876 14.585 16.665 14.1383 16.665H2.34917C1.9025 16.665 1.47412 16.4876 1.15828 16.1717C0.842439 15.8559 0.665 15.4275 0.665 14.9808V7.40208Z" stroke="var(--stroke-0, #1C1F1B)" stroke-width="1.33" stroke-linecap="round" stroke-linejoin="round"/>
</svg>
