<svg preserveAspectRatio="none" width="100%" height="100%" overflow="visible" style="display: block;" viewBox="0 0 19.5 20.5005" fill="none" xmlns="http://www.w3.org/2000/svg">
<path id="Vector" d="M12.75 19.7505V11.7505C12.75 11.4853 12.6446 11.2309 12.4571 11.0434C12.2696 10.8558 12.0152 10.7505 11.75 10.7505H7.75C7.48478 10.7505 7.23043 10.8558 7.04289 11.0434C6.85536 11.2309 6.75 11.4853 6.75 11.7505V19.7505M0.75 8.75048C0.74993 8.45955 0.813334 8.1721 0.935788 7.9082C1.05824 7.64429 1.2368 7.41028 1.459 7.22248L8.459 1.22248C8.81999 0.917388 9.27736 0.75 9.75 0.75C10.2226 0.75 10.68 0.917388 11.041 1.22248L18.041 7.22248C18.2632 7.41028 18.4418 7.64429 18.5642 7.9082C18.6867 8.1721 18.7501 8.45955 18.75 8.75048V17.7505C18.75 18.2809 18.5393 18.7896 18.1642 19.1647C17.7891 19.5398 17.2804 19.7505 16.75 19.7505H2.75C2.21957 19.7505 1.71086 19.5398 1.33579 19.1647C0.960714 18.7896 0.75 18.2809 0.75 17.7505V8.75048Z" stroke="var(--stroke-0, #1C1F1B)" stroke-width="1.5" stroke-linecap="round" stroke-linejoin="round"/>
</svg>
