<svg preserveAspectRatio="none" width="100%" height="100%" overflow="visible" style="display: block;" viewBox="0 0 21.4999 21.5" fill="none" xmlns="http://www.w3.org/2000/svg">
<path id="Vector" d="M6.74965 10.7496H6.75965M10.7496 10.7496H10.7596M14.7496 10.7496H14.7596M1.74168 15.0916C1.88872 15.4625 1.92146 15.8689 1.83568 16.2586L0.770692 19.5486C0.736376 19.7154 0.745249 19.8882 0.796467 20.0507C0.847686 20.2132 0.939553 20.3598 1.06336 20.4768C1.18716 20.5938 1.3388 20.6772 1.50389 20.7192C1.66898 20.7611 1.84204 20.7602 2.00668 20.7165L5.41966 19.7186C5.78737 19.6456 6.16818 19.6775 6.51865 19.8106C8.65402 20.8078 11.073 21.0187 13.3487 20.4063C15.6245 19.7938 17.6108 18.3972 18.9573 16.4629C20.3037 14.5287 20.9237 12.181 20.7078 9.83418C20.492 7.48733 19.4542 5.29213 17.7776 3.63587C16.101 1.97961 13.8933 0.968732 11.544 0.781591C9.19469 0.594451 6.85478 1.24307 4.9371 2.61302C3.01942 3.98297 1.64722 5.9862 1.06258 8.26928C0.477949 10.5524 0.718461 12.9686 1.74168 15.0916Z" stroke="var(--stroke-0, #1C1F1B)" stroke-width="1.5" stroke-linecap="round" stroke-linejoin="round"/>
</svg>
