<svg preserveAspectRatio="none" width="100%" height="100%" overflow="visible" style="display: block;" viewBox="0 0 17.3299 17.33" fill="none" xmlns="http://www.w3.org/2000/svg">
<path id="Vector" d="M5.46472 8.6647H5.47272M8.66469 8.6647H8.67269M11.8647 8.6647H11.8727M1.45835 12.1383C1.57598 12.435 1.60217 12.7601 1.53355 13.0719L0.681553 15.7038C0.654101 15.8373 0.661199 15.9756 0.702174 16.1056C0.743149 16.2355 0.816642 16.3529 0.915685 16.4465C1.01473 16.5401 1.13604 16.6068 1.26811 16.6404C1.40018 16.6739 1.53864 16.6732 1.67035 16.6382L4.40073 15.8398C4.6949 15.7815 4.99954 15.807 5.27992 15.9134C6.98821 16.7112 8.92338 16.88 10.744 16.39C12.5646 15.9 14.1537 14.7828 15.2308 13.2354C16.3079 11.6879 16.8039 9.80981 16.6313 7.93234C16.4586 6.05487 15.6284 4.2987 14.2871 2.9737C12.9458 1.64869 11.1796 0.839986 9.30019 0.690273C7.42075 0.540561 5.54882 1.05946 4.01468 2.15542C2.48054 3.25137 1.38277 4.85396 0.915066 6.68042C0.447359 8.50688 0.639769 10.4398 1.45835 12.1383Z" stroke="var(--stroke-0, #1C1F1B)" stroke-width="1.33" stroke-linecap="round" stroke-linejoin="round"/>
</svg>
