<svg preserveAspectRatio="none" width="100%" height="100%" overflow="visible" style="display: block;" viewBox="0 0 21.5001 21.5001" fill="none" xmlns="http://www.w3.org/2000/svg">
<path id="Vector" d="M20.7492 11.2826C20.645 13.213 19.9839 15.0718 18.8458 16.6345C17.7077 18.1972 16.1413 19.3967 14.336 20.0881C12.5306 20.7795 10.5637 20.9333 8.67289 20.5307C6.78209 20.128 5.04837 19.1864 3.68133 17.8195C2.31428 16.4526 1.37243 14.719 0.969633 12.8282C0.566832 10.9374 0.720326 8.97048 1.41156 7.16509C2.10279 5.3597 3.30217 3.79318 4.86472 2.65489C6.42726 1.5166 8.28606 0.855282 10.2164 0.750871C10.6667 0.72641 10.9025 1.26233 10.6634 1.64371C9.86385 2.92298 9.52148 4.43549 9.69218 5.93439C9.86288 7.43329 10.5366 8.83008 11.6033 9.89682C12.67 10.9636 14.0668 11.6372 15.5657 11.8079C17.0646 11.9786 18.5771 11.6363 19.8564 10.8367C20.2389 10.5977 20.7737 10.8323 20.7492 11.2826Z" stroke="var(--stroke-0, #1C1F1B)" stroke-width="1.5" stroke-linecap="round" stroke-linejoin="round"/>
</svg>
