<svg preserveAspectRatio="none" width="100%" height="100%" overflow="visible" style="display: block;" viewBox="0 0 17.3301 17.3301" fill="none" xmlns="http://www.w3.org/2000/svg">
<g transform="translate(0.6932 0.6932) scale(0.92)">
<path id="Vector" d="M16.6644 9.09106C16.581 10.6354 16.0521 12.1225 15.1416 13.3726C14.2311 14.6227 12.978 15.5824 11.5338 16.1355C10.0895 16.6886 8.51596 16.8116 7.00332 16.4895C5.49067 16.1674 4.1037 15.4141 3.01006 14.3206C1.91643 13.2271 1.16295 11.8402 0.840706 10.3276C0.518466 8.81496 0.641261 7.24139 1.19425 5.79708C1.74724 4.35276 2.70674 3.09955 3.95677 2.18892C5.20681 1.27829 6.69385 0.749231 8.23815 0.665702C8.5984 0.646133 8.78697 1.07487 8.59573 1.37997C7.95608 2.40339 7.68218 3.6134 7.81874 4.81252C7.9553 6.01164 8.49426 7.12907 9.34764 7.98246C10.201 8.83585 11.3185 9.3748 12.5176 9.51136C13.7167 9.64792 14.9267 9.37402 15.9501 8.73437C16.2561 8.54313 16.684 8.73082 16.6644 9.09106Z" stroke="var(--stroke-0, #1C1F1B)" stroke-width="1.33" stroke-linecap="round" stroke-linejoin="round"/>
</g>
</svg>
