<svg preserveAspectRatio="none" width="100%" height="100%" overflow="visible" style="display: block;" viewBox="0 0 21.5 21.4102" fill="none" xmlns="http://www.w3.org/2000/svg">
<path id="Vector" d="M0.75 0.75H2.74601L5.4007 13.1452C5.49808 13.5992 5.75067 14.005 6.11498 14.2928C6.47929 14.5806 6.93254 14.7324 7.39671 14.7221H17.1572C17.6115 14.7213 18.0519 14.5657 18.4057 14.2808C18.7596 13.9959 19.0056 13.5988 19.1033 13.1552L20.75 5.74002H3.81387M7.68613 19.6622C7.68613 20.2134 7.23931 20.6602 6.68812 20.6602C6.13694 20.6602 5.69012 20.2134 5.69012 19.6622C5.69012 19.111 6.13694 18.6642 6.68812 18.6642C7.23931 18.6642 7.68613 19.111 7.68613 19.6622ZM18.6642 19.6622C18.6642 20.2134 18.2173 20.6602 17.6662 20.6602C17.115 20.6602 16.6682 20.2134 16.6682 19.6622C16.6682 19.111 17.115 18.6642 17.6662 18.6642C18.2173 18.6642 18.6642 19.111 18.6642 19.6622Z" stroke="var(--stroke-0, #1C1F1B)" stroke-width="1.5" stroke-linecap="round" stroke-linejoin="round"/>
</svg>
