<svg preserveAspectRatio="none" width="100%" height="100%" overflow="visible" style="display: block;" viewBox="0 0 17.33 17.2581" fill="none" xmlns="http://www.w3.org/2000/svg">
<path id="Vector" d="M0.665 0.665H2.26181L4.38556 10.5812C4.46347 10.9443 4.66553 11.269 4.95698 11.4992C5.24843 11.7295 5.61103 11.8509 5.98236 11.8426H13.7907C14.1542 11.8421 14.5065 11.7175 14.7896 11.4896C15.0726 11.2617 15.2695 10.9441 15.3476 10.5892L16.665 4.65702H3.1161M6.2139 15.7947C6.2139 16.2357 5.85644 16.5931 5.4155 16.5931C4.97455 16.5931 4.6171 16.2357 4.6171 15.7947C4.6171 15.3538 4.97455 14.9963 5.4155 14.9963C5.85644 14.9963 6.2139 15.3538 6.2139 15.7947ZM14.9963 15.7947C14.9963 16.2357 14.6389 16.5931 14.1979 16.5931C13.757 16.5931 13.3995 16.2357 13.3995 15.7947C13.3995 15.3538 13.757 14.9963 14.1979 14.9963C14.6389 14.9963 14.9963 15.3538 14.9963 15.7947Z" stroke="var(--stroke-0, #1C1F1B)" stroke-width="1.33" stroke-linecap="round" stroke-linejoin="round"/>
</svg>
