<svg width="90" height="24" viewBox="0 0 90 24" fill="none" xmlns="http://www.w3.org/2000/svg">
<path d="M7.85891 9.68309L10.5424 10.2903C14.1524 11.1212 18.3375 12.3995 18.3375 17.0652C18.3375 21.6032 14.1205 24 9.52015 24C4.05724 24 0.606989 21.028 0 16.3941H3.19468C3.80167 19.5899 6.03794 21.2517 9.58404 21.2517C13.0023 21.2517 14.983 19.6218 14.983 17.3529C14.983 14.9241 12.9065 13.8695 9.99935 13.2623L7.12414 12.6551C3.9614 11.984 0.766723 10.2903 0.766723 6.51931C0.766723 1.98136 5.39901 0 9.13679 0C13.2899 0 17.0276 1.85353 17.9222 6.32756H14.7594C13.9608 3.64314 11.3411 2.74834 9.009 2.74834C7.21998 2.74834 4.08919 3.57923 4.08919 6.26365C4.08919 8.24501 5.71848 9.20373 7.85891 9.68309Z" fill="#153014"/>
<path d="M27.9751 8.59654C25.6111 8.59654 23.279 9.71505 22.7998 13.4541H32.9269C32.7352 10.6418 30.7545 8.59654 27.9751 8.59654ZM32.7672 18.5992H35.7702C34.9715 21.5712 32.256 24 28.071 24C22.64 24 19.637 20.1012 19.637 15.02C19.637 9.58722 23.279 6.10386 27.9751 6.10386C32.9269 6.10386 36.0257 10.0666 36.0257 15.02C36.0257 15.3076 36.0257 15.5952 35.9938 15.8828H22.7359C23.0873 19.8775 25.675 21.4434 28.071 21.4434C30.6267 21.4434 32.0324 20.2929 32.7672 18.5992Z" fill="#153014"/>
<path d="M37.6667 23.5846V6.39148H40.5738V8.98003C41.5642 7.3502 43.2254 6.10386 46.1326 6.10386C50.2857 6.10386 51.7872 8.78828 51.7872 12.719V23.5846H48.88V13.5819C48.88 10.9294 48.4327 8.6285 45.1103 8.6285C42.299 8.6285 40.5738 10.5779 40.5738 14.253V23.5846H37.6667Z" fill="#153014"/>
<path d="M68 23.5846H65.0609C64.9012 22.6897 64.8373 21.9547 64.8373 21.2197C63.783 22.9774 61.994 24 58.9591 24C55.7324 24 53.0489 22.2104 53.0489 19.0466C53.0489 14.988 57.6173 13.8056 64.6775 13.0067V12.5912C64.6775 9.45939 62.9205 8.40479 60.78 8.40479C58.384 8.40479 56.9784 9.71505 56.8506 11.8242H53.8476C54.1351 8.11718 57.3298 6.03995 60.7481 6.03995C65.4762 6.03995 67.5527 8.30892 67.5527 13.1345V17.0972C67.5527 19.9734 67.6805 21.9547 68 23.5846ZM64.9012 16.3941V15.3076C59.6299 15.8509 56.2755 16.6178 56.2755 18.9827C56.2755 20.6125 57.5215 21.6991 59.598 21.6991C62.3135 21.6991 64.9012 20.4527 64.9012 16.3941Z" fill="#153014"/>
<circle cx="81" cy="15" r="9" fill="#153014"/>
</svg>
