<svg width="120" height="32" viewBox="0 0 120 32" fill="none" xmlns="http://www.w3.org/2000/svg">
<path d="M10.5171 12.9108L14.1083 13.7204C18.9393 14.8282 24.5398 16.5326 24.5398 22.7537C24.5398 28.8043 18.8965 32 12.7402 32C5.42955 32 0.812294 28.0373 0 21.8589H4.27523C5.08753 26.1198 8.08019 28.3356 12.8257 28.3356C17.4002 28.3356 20.0508 26.1625 20.0508 23.1372C20.0508 19.8988 17.2719 18.4927 13.3815 17.6831L9.53377 16.8735C5.30129 15.9787 1.02606 13.7204 1.02606 8.69241C1.02606 2.64181 7.22514 0 12.2272 0C17.785 0 22.787 2.47137 23.9841 8.43675H19.7516C18.6828 4.85752 15.1771 3.66445 12.0562 3.66445C9.66203 3.66445 5.4723 4.7723 5.4723 8.35153C5.4723 10.9933 7.65267 12.2716 10.5171 12.9108Z" fill="#153014"/>
<path d="M37.4373 11.4621C34.2736 11.4621 31.1527 12.9534 30.5114 17.9387H44.0639C43.8074 14.1891 41.1568 11.4621 37.4373 11.4621ZM43.8502 24.7989H47.8689C46.8001 28.7617 43.1661 32 37.5656 32C30.2977 32 26.279 26.8016 26.279 20.0266C26.279 12.783 31.1527 8.13848 37.4373 8.13848C44.0639 8.13848 48.2109 13.4221 48.2109 20.0266C48.2109 20.4101 48.2109 20.7936 48.1682 21.1771H30.4259C30.8962 26.5033 34.3591 28.5912 37.5656 28.5912C40.9858 28.5912 42.8669 27.0573 43.8502 24.7989Z" fill="#153014"/>
<path d="M50.4069 31.4461V8.52197H54.2973V11.9734C55.6226 9.80027 57.8458 8.13848 61.7362 8.13848C67.294 8.13848 69.3034 11.7177 69.3034 16.9587V31.4461H65.4129V18.1092C65.4129 14.5726 64.8144 11.5047 60.3682 11.5047C56.6059 11.5047 54.2973 14.1039 54.2973 19.004V31.4461H50.4069Z" fill="#153014"/>
<path d="M91 31.4461H87.0668C86.853 30.253 86.7675 29.273 86.7675 28.2929C85.3567 30.6365 82.9626 32 78.9011 32C74.5831 32 70.9919 29.6138 70.9919 25.3955C70.9919 19.984 77.1055 18.4075 86.5537 17.3422V16.7883C86.5537 12.6125 84.2024 11.2064 81.338 11.2064C78.1315 11.2064 76.2504 12.9534 76.0794 15.7656H72.0607C72.4455 10.8229 76.7207 8.05326 81.2952 8.05326C87.6226 8.05326 90.4015 11.0786 90.4015 17.5127V22.7963C90.4015 26.6312 90.5725 29.273 91 31.4461ZM86.853 21.8589V20.4101C79.7989 21.1345 75.3099 22.1571 75.3099 25.3103C75.3099 27.4834 76.9772 28.9321 79.7561 28.9321C83.3901 28.9321 86.853 27.2703 86.853 21.8589Z" fill="#153014"/>
<circle cx="108" cy="20" r="12" fill="#153014"/>
</svg>
