<svg width="35" height="24" viewBox="0 0 35 24" fill="none" xmlns="http://www.w3.org/2000/svg">
<rect x="0.5" y="0.5" width="34" height="23" rx="3.5" fill="white" stroke="#D9D9D9"/>
<path d="M27.4976 14.3193H27.5151L28.9741 10.6563H30.0005L26.8462 18H25.8735L27.0454 15.4316L24.9771 10.6563H26.0024L27.4976 14.3193ZM22.562 10.4893C23.2594 10.4893 23.81 10.6801 24.2144 11.0547C24.6188 11.4293 24.8188 11.9522 24.8188 12.6123V15.7578H23.9155V15.0508H23.8745C23.4819 15.6333 22.9663 15.9247 22.3159 15.9248C21.7649 15.9248 21.2955 15.7578 20.9263 15.4248C20.5631 15.1157 20.358 14.6582 20.3696 14.1768C20.3696 13.6476 20.5689 13.2312 20.9614 12.916C21.3542 12.6008 21.8821 12.4453 22.5386 12.4453C23.101 12.4454 23.5581 12.5528 23.9214 12.7549V12.5352C23.9214 12.2081 23.7809 11.8987 23.5347 11.6846C23.2827 11.4587 22.9605 11.3341 22.6265 11.334C22.0989 11.334 21.6822 11.5598 21.3774 12.0117L20.5454 11.4824C20.9909 10.8224 21.6652 10.4893 22.562 10.4893ZM18.0894 8.30079C18.6931 8.28891 19.2796 8.52107 19.7075 8.94923C20.563 9.75801 20.6159 11.1201 19.813 11.9941L19.7075 12.1006C19.2679 12.5228 18.7282 12.7373 18.0894 12.7373H16.5298V15.7578H15.5864V8.30079H18.0894ZM22.6851 13.2188C22.3042 13.2188 21.982 13.3139 21.7241 13.4981C21.472 13.6824 21.3423 13.9148 21.3423 14.1943C21.3424 14.444 21.4604 14.6757 21.6538 14.8184C21.8648 14.9848 22.1225 15.0743 22.3862 15.0684C22.7849 15.0683 23.1664 14.9075 23.4478 14.6221C23.7582 14.3248 23.9165 13.9736 23.9165 13.5693C23.6234 13.3315 23.2127 13.2128 22.6851 13.2188ZM16.5298 11.8213H18.1128C18.4645 11.8332 18.805 11.6903 19.0454 11.4346C19.5376 10.9172 19.5261 10.0844 19.0161 9.58497C18.7758 9.34719 18.4528 9.2168 18.1128 9.2168H16.5298V11.8213Z" fill="#3C4043"/>
<path d="M13.2721 12.083C13.2721 11.7916 13.2486 11.5002 13.2017 11.2148H9.22174V12.862H11.5019C11.4081 13.3913 11.1033 13.867 10.6578 14.1644V15.2348H12.0177C12.8149 14.4914 13.2721 13.3913 13.2721 12.083Z" fill="#4285F4"/>
<path d="M9.22192 16.2695C10.3591 16.2695 11.3204 15.8889 12.0179 15.2348L10.658 14.1643C10.277 14.426 9.79049 14.5747 9.22192 14.5747C8.11995 14.5747 7.18796 13.8194 6.85385 12.8085H5.45294V13.9146C6.16805 15.3596 7.62758 16.2695 9.22192 16.2695Z" fill="#34A853"/>
<path d="M6.85401 12.8085C6.67814 12.2793 6.67814 11.7024 6.85401 11.1672V10.0671H5.45288C4.84904 11.2743 4.84904 12.7015 5.45288 13.9087L6.85401 12.8085Z" fill="#FBBC04"/>
<path d="M9.22192 9.40102C9.82566 9.38913 10.406 9.62105 10.8397 10.0433L12.0472 8.81824C11.2793 8.09273 10.2711 7.6943 9.22192 7.70619C7.62758 7.70619 6.16805 8.62199 5.45294 10.0671L6.85385 11.1732C7.18796 10.1563 8.11995 9.40102 9.22192 9.40102Z" fill="#EA4335"/>
</svg>
